<svg xmlns="http://www.w3.org/2000/svg" xmlns:xlink="http://www.w3.org/1999/xlink" version="1.1" x="0px" y="0px" viewBox="0 0 50.4 63" enable-background="new 0 0 50.4 50.4" xml:space="preserve"><g><g><path d="M37.312,16.184c1.841-0.602,2.842-2.578,2.243-4.419c-0.603-1.845-2.576-2.85-4.42-2.249    c-1.845,0.599-2.847,2.575-2.245,4.419C33.491,15.78,35.465,16.784,37.312,16.184z"/><path d="M49.305,23.256l-12.214-5.571c-0.412-0.201-1.051-0.33-1.788-0.253c-0.633,0.067-1.407,0.48-2.129,0.975    c-0.142,0.068-0.257,0.162-0.369,0.263c-1.084,0.798-1.975,1.685-1.975,1.685l-5.393,5.414c-0.583,0.648-0.917,1.49-0.937,2.375    c-0.012,0.07-0.026,0.146-0.023,0.22l-0.053,6.388l-5.989,0.294c-1.169,0.057-2.039,0.92-1.982,2.087    c0.059,1.168,1.052,2.07,2.222,2.014l7.994-0.392c0.383-0.018,0.734-0.139,1.036-0.33c0.591-0.377,0.979-1.034,0.979-1.782    l-0.122-4.121l1.38,4.884l-4.579,7.915c-0.586,1.014-0.374,2.264,0.637,2.847c0.709,0.412,1.558,0.364,2.2-0.047    c0.28-0.177,0.519-0.422,0.695-0.726l5.041-8.717c0.321-0.601,0.333-1.099,0.191-1.679l-2.003-7.609l1.988-1.964l-2.484-2.437    l0.808-0.739l5.206,5.081c0.539,0.48,1.316,0.527,1.899,0.156c0.11-0.07,0.211-0.153,0.309-0.257    c0.598-0.639,0.562-1.646-0.076-2.244l-2.633-2.457l2.193-2.141l8.558,3.915c0.387,0.191,0.843,0.235,1.282,0.092    c0.878-0.297,1.35-1.246,1.058-2.127C50.072,23.795,49.728,23.438,49.305,23.256z"/></g><path d="M14.197,44.339c-1.567,0-3.268-0.185-4.842-0.739c-0.998-0.354-1.58-0.843-1.779-1.496   c-0.312-1.031,0.455-2.057,1.131-2.961c0.368-0.492,0.925-1.237,0.84-1.502c-0.026-0.08-0.194-0.219-0.583-0.346   c-3.365-1.078-7.995,1.503-8.041,1.526c-0.299,0.169-0.675,0.065-0.843-0.232c-0.167-0.298-0.063-0.674,0.234-0.843   c0.209-0.117,5.16-2.881,9.03-1.626c0.763,0.244,1.215,0.619,1.381,1.143c0.278,0.876-0.386,1.763-1.028,2.623   c-0.476,0.636-1.068,1.428-0.938,1.855c0.074,0.245,0.431,0.488,1.007,0.691c4.23,1.494,9.736,0.003,9.791-0.015   c0.33-0.089,0.669,0.104,0.761,0.434c0.092,0.327-0.102,0.669-0.431,0.76C19.73,43.656,17.211,44.339,14.197,44.339L14.197,44.339z   "/><circle cx="30.407" cy="4.864" r="0.849"/><circle cx="33.99" cy="7.126" r="0.848"/><circle cx="42.472" cy="6.623" r="0.849"/><circle cx="34.178" cy="3.921" r="0.849"/><circle cx="37.318" cy="5.869" r="0.848"/></g><text x="0" y="65.4" fill="#000000" font-size="5px" font-weight="bold" font-family="'Helvetica Neue', Helvetica, Arial-Unicode, Arial, Sans-serif">Created by Luis Prado</text><text x="0" y="70.4" fill="#000000" font-size="5px" font-weight="bold" font-family="'Helvetica Neue', Helvetica, Arial-Unicode, Arial, Sans-serif">from the Noun Project</text></svg>